<?xml version="1.0" encoding="UTF-8" standalone="no"?>
<svg
   xmlns:dc="http://purl.org/dc/elements/1.1/"
   xmlns:cc="http://creativecommons.org/ns#"
   xmlns:rdf="http://www.w3.org/1999/02/22-rdf-syntax-ns#"
   xmlns:svg="http://www.w3.org/2000/svg"
   xmlns="http://www.w3.org/2000/svg"
   xmlns:sodipodi="http://sodipodi.sourceforge.net/DTD/sodipodi-0.dtd"
   xmlns:inkscape="http://www.inkscape.org/namespaces/inkscape"
   version="1.1"
   id="Layer_1"
   x="0px"
   y="0px"
   viewBox="0 0 512 512"
   style="enable-background:new 0 0 512 512;"
   xml:space="preserve"
   sodipodi:docname="wordtotranslate.svg"
   inkscape:version="1.0.1 (3bc2e813f5, 2020-09-07)"><metadata
   id="metadata47"><rdf:RDF><cc:Work
       rdf:about=""><dc:format>image/svg+xml</dc:format><dc:type
         rdf:resource="http://purl.org/dc/dcmitype/StillImage" /><dc:title></dc:title></cc:Work></rdf:RDF></metadata><defs
   id="defs45" /><sodipodi:namedview
   pagecolor="#ffffff"
   bordercolor="#666666"
   borderopacity="1"
   objecttolerance="10"
   gridtolerance="10"
   guidetolerance="10"
   inkscape:pageopacity="0"
   inkscape:pageshadow="2"
   inkscape:window-width="1920"
   inkscape:window-height="1017"
   id="namedview43"
   showgrid="false"
   inkscape:zoom="1.6601562"
   inkscape:cx="256"
   inkscape:cy="256"
   inkscape:window-x="-8"
   inkscape:window-y="-8"
   inkscape:window-maximized="1"
   inkscape:current-layer="Layer_1" />
<path
   style="fill:#DAE2F2;"
   d="M467,91H237.25l-34.528,415.796c6.068,3.034,12.594,5.204,19.763,5.204H467c24.814,0,45-20.186,45-45  V136C512,111.186,491.814,91,467,91z"
   id="path2" />
<path
   style="fill:#4D97FF;"
   d="M169.867,407.86l7.969,64.721c1.6,12.854,10.3,26.922,24.886,34.215  c29.167-31.374,9.614-11.341,78.829-85.796L169.867,407.86z"
   id="path4" />
<path
   style="fill:#4DB5FF;"
   d="M281.551,421c4.907-5.608,9.211-9.373,8.053-17.095l-45.44-364.486  C241.366,16.948,222.162,0,199.516,0H45C20.186,0,0,20.186,0,45v331c0,24.814,20.186,45,45,45C123.402,421,202.898,421,281.551,421z  "
   id="path6" />

<path
   style="fill:#53565C;"
   d="M436,226h-45v-15c0-8.291-6.709-15-15-15s-15,6.709-15,15v15h-45c-8.291,0-15,6.709-15,15  s6.709,15,15,15h4.006c8.535,27.383,21.07,48.81,35.136,65.702c-11.019,10.074-21.802,18.339-33.518,27.594  c-6.459,5.171-7.514,14.604-2.328,21.079c5.162,6.465,14.632,7.514,21.078,2.329c12.73-10.047,23.679-18.456,35.626-29.421  c11.947,10.966,22.896,19.375,35.624,29.421c6.448,5.185,15.918,4.136,21.08-2.329c5.186-6.475,4.131-15.908-2.33-21.079  c-11.715-9.255-22.498-17.52-33.517-27.594c14.066-16.891,26.602-38.318,35.136-65.702H436c8.291,0,15-6.709,15-15  S444.291,226,436,226z M376,299.467c-9.534-11.984-18.149-26.069-24.626-43.467h49.252C394.149,273.399,385.534,287.483,376,299.467  z"
   id="path10" />
<g
   id="g12">
</g>
<g
   id="g14">
</g>
<g
   id="g16">
</g>
<g
   id="g18">
</g>
<g
   id="g20">
</g>
<g
   id="g22">
</g>
<g
   id="g24">
</g>
<g
   id="g26">
</g>
<g
   id="g28">
</g>
<g
   id="g30">
</g>
<g
   id="g32">
</g>
<g
   id="g34">
</g>
<g
   id="g36">
</g>
<g
   id="g38">
</g>
<g
   id="g40">
</g>
<text
   xml:space="preserve"
   style="font-size:192px;line-height:1.25;font-family:Arial;-inkscape-font-specification:Arial;fill:#e6eeff;fill-opacity:1"
   x="18.672939"
   y="234.31528"
   id="text874"><tspan
     sodipodi:role="line"
     id="tspan872"
     x="18.672939"
     y="234.31528"
     style="font-style:normal;font-variant:normal;font-weight:bold;font-stretch:normal;font-size:192px;font-family:Georgia;-inkscape-font-specification:'Georgia Bold';fill:#e6eeff;fill-opacity:1">W</tspan></text></svg>
